<svg width="32" height="32" viewBox="0 0 32 32" fill="none" xmlns="http://www.w3.org/2000/svg">
<path d="M7.25 6.375L24.75 25.625" stroke="#383733" stroke-width="1.5" stroke-linecap="round" stroke-linejoin="round"/>
<path d="M18.9427 19.2375C18.0841 20.0179 16.9507 20.4252 15.7917 20.37C14.6328 20.3148 13.5433 19.8014 12.7628 18.9429C11.9823 18.0844 11.5748 16.951 11.6299 15.792C11.6851 14.6331 12.1983 13.5435 13.0568 12.7629" stroke="#383733" stroke-width="1.5" stroke-linecap="round" stroke-linejoin="round"/>
<path d="M10.0931 9.50244C5.63401 11.7605 3.75 16 3.75 16C3.75 16 7.25 23.8742 16 23.8742C18.0501 23.8905 20.0746 23.4183 21.906 22.4966" stroke="#383733" stroke-width="1.5" stroke-linecap="round" stroke-linejoin="round"/>
<path d="M24.8161 20.4953C27.2007 18.3595 28.2494 16 28.2494 16C28.2494 16 24.7494 8.12416 15.9994 8.12416C15.2416 8.12292 14.485 8.18454 13.7373 8.30837" stroke="#383733" stroke-width="1.5" stroke-linecap="round" stroke-linejoin="round"/>
<path d="M16.8237 11.7025C17.7536 11.8811 18.6005 12.3563 19.2374 13.0569C19.8744 13.7576 20.2669 14.6458 20.3563 15.5885" stroke="#383733" stroke-width="1.5" stroke-linecap="round" stroke-linejoin="round"/>
</svg>
